<svg width="80" height="80" viewBox="0 0 80 80" fill="none" xmlns="http://www.w3.org/2000/svg">
<rect width="80" height="80" fill="#D6FFC8"/>
<path d="M18.6982 44.789L20.4666 42.5923H22.5905C23.1763 42.5923 23.6663 42.4684 24.0606 42.2206C24.4549 41.9728 24.7478 41.601 24.9393 41.1054C25.142 40.6097 25.2434 39.9901 25.2434 39.2467C25.2434 38.6496 25.1815 38.1371 25.0576 37.709C24.9336 37.2809 24.7478 36.9317 24.4999 36.6614C24.2634 36.3797 23.9536 36.1713 23.5706 36.0361C23.1988 35.901 22.7595 35.8334 22.2526 35.8334H19.1894L19.4614 33.6367H22.1512C23.5368 33.6367 24.6689 33.8564 25.5476 34.2957C26.4262 34.735 27.0683 35.3659 27.4739 36.1882C27.8794 36.9993 28.0822 37.9737 28.0822 39.1115C28.0822 39.9901 27.9752 40.7505 27.7611 41.3926C27.5584 42.0347 27.2767 42.5754 26.9163 43.0148C26.5558 43.4428 26.139 43.792 25.6659 44.0624C25.204 44.3215 24.714 44.5074 24.1958 44.62C23.6889 44.7327 23.1819 44.789 22.675 44.789H21.0191H18.6982Z" fill="#10171D"/>
<path d="M29.8915 44.789V35.8672H32.6484V44.789H29.8915Z" fill="#10171D"/>
<path d="M38.3256 47.915C37.3343 47.915 36.5175 47.8362 35.8754 47.6784C35.2446 47.532 34.7828 47.3067 34.4899 47.0026C34.197 46.7097 34.0505 46.3492 34.0505 45.9211C34.0505 45.4029 34.2533 44.9805 34.6588 44.6538C35.0756 44.3271 35.6839 44.1413 36.4838 44.0962V43.7414C35.8642 43.7414 35.3854 43.6794 35.0475 43.5555C34.7208 43.4316 34.5575 43.2006 34.5575 42.8627C34.5575 42.5473 34.7208 42.26 35.0475 42.0009C35.3742 41.7418 35.9149 41.5391 36.6696 41.3926V41.0378C35.9825 40.9815 35.4361 40.7562 35.0306 40.3619C34.625 39.9563 34.4223 39.4269 34.4223 38.7735C34.4223 38.2215 34.58 37.7203 34.8954 37.2697C35.2108 36.8078 35.6839 36.4417 36.3148 36.1713C36.9456 35.8897 37.7342 35.7489 38.6804 35.7489H43.3103V37.7935L40.4884 37.4217V37.8273C41.2207 37.9287 41.7445 38.0976 42.0599 38.3342C42.3753 38.5708 42.533 38.9031 42.533 39.3311C42.533 39.7817 42.3753 40.1816 42.0599 40.5309C41.7557 40.8801 41.322 41.1561 40.7588 41.3588C40.1955 41.5503 39.5253 41.6461 38.748 41.6461C38.6128 41.6461 38.4607 41.6404 38.2918 41.6292C38.1341 41.6179 37.8355 41.5898 37.3962 41.5447C37.216 41.7024 37.0752 41.8376 36.9738 41.9502C36.8724 42.0516 36.8217 42.1474 36.8217 42.2375C36.8217 42.3051 36.8499 42.3614 36.9062 42.4065C36.9625 42.4515 37.0414 42.4853 37.1428 42.5078C37.2554 42.5191 37.3737 42.5247 37.4976 42.5247H40.2181C40.4434 42.5247 40.7363 42.5416 41.0967 42.5754C41.4685 42.598 41.8346 42.6825 42.1951 42.8289C42.5668 42.9753 42.8766 43.2119 43.1244 43.5386C43.3835 43.8653 43.5131 44.3328 43.5131 44.9411C43.5131 45.6057 43.3272 46.1577 42.9555 46.597C42.5837 47.0476 42.0148 47.3799 41.2488 47.594C40.4828 47.808 39.5084 47.915 38.3256 47.915ZM38.6804 45.7521C39.3338 45.7521 39.8407 45.7184 40.2012 45.6508C40.5617 45.5832 40.8095 45.4762 40.9447 45.3297C41.0911 45.1833 41.1643 45.003 41.1643 44.789C41.1643 44.5862 41.1249 44.4285 41.046 44.3159C40.9672 44.192 40.8658 44.1075 40.7419 44.0624C40.618 44.0173 40.4884 43.9892 40.3533 43.9779C40.2293 43.9667 40.1223 43.961 40.0322 43.961H37.8524C37.4356 43.961 37.1259 44.0624 36.9231 44.2652C36.7316 44.4567 36.6358 44.682 36.6358 44.9411C36.6358 45.1551 36.7034 45.3184 36.8386 45.4311C36.9738 45.555 37.1878 45.6395 37.4807 45.6846C37.7849 45.7296 38.1848 45.7521 38.6804 45.7521ZM38.5621 40.2943C39.0465 40.2943 39.407 40.1647 39.6436 39.9057C39.8914 39.6466 40.0153 39.3199 40.0153 38.9256C40.0153 38.4975 39.8914 38.1483 39.6436 37.878C39.3957 37.5963 39.0409 37.4555 38.579 37.4555C38.1172 37.4555 37.7567 37.5963 37.4976 37.878C37.2385 38.1483 37.109 38.4975 37.109 38.9256C37.109 39.1847 37.1653 39.4213 37.2779 39.6353C37.3906 39.8381 37.5539 40.0014 37.768 40.1253C37.982 40.238 38.2467 40.2943 38.5621 40.2943Z" fill="#10171D"/>
<path d="M45.0267 44.789V35.8672H47.7775V44.789H45.0267Z" fill="#10171D"/>
<path d="M53.475 45.0256C52.878 45.0256 52.3372 44.9692 51.8529 44.8566C51.3685 44.7552 50.946 44.6031 50.5856 44.4004C50.2251 44.1976 49.9266 43.9554 49.69 43.6738C49.4647 43.3809 49.307 43.0598 49.2169 42.7106L51.2445 41.8151C51.3234 42.0066 51.4586 42.2037 51.6501 42.4065C51.8529 42.598 52.1176 42.7557 52.4443 42.8796C52.7822 43.0035 53.1877 43.0655 53.6609 43.0655C54.1115 43.0655 54.4607 43.0035 54.7085 42.8796C54.9676 42.7444 55.0971 42.5529 55.0971 42.3051C55.0971 42.1248 55.0239 41.984 54.8775 41.8826C54.7423 41.77 54.5339 41.6742 54.2523 41.5954C53.9707 41.5053 53.6214 41.4208 53.2046 41.3419C52.7766 41.2518 52.3429 41.1504 51.9035 41.0378C51.4642 40.9139 51.053 40.7505 50.67 40.5478C50.287 40.3337 49.9772 40.0577 49.7407 39.7198C49.5154 39.3706 49.4027 38.9312 49.4027 38.4018C49.4027 37.8498 49.5492 37.371 49.8421 36.9655C50.135 36.5487 50.5687 36.222 51.1432 35.9855C51.7289 35.7489 52.4386 35.6306 53.2722 35.6306C54.0157 35.6306 54.6691 35.7264 55.2323 35.9179C55.7956 36.1094 56.2631 36.3854 56.6348 36.7458C57.0178 37.0951 57.2825 37.5175 57.429 38.0131L55.2492 38.7904C55.1929 38.5426 55.0746 38.3286 54.8944 38.1483C54.7254 37.9681 54.5057 37.8329 54.2354 37.7428C53.9763 37.6414 53.6665 37.5907 53.306 37.5907C52.8667 37.5907 52.5231 37.6583 52.2753 37.7935C52.0387 37.9287 51.9204 38.1089 51.9204 38.3342C51.9204 38.5144 51.9993 38.6665 52.157 38.7904C52.326 38.9031 52.5625 38.9988 52.8667 39.0777C53.1708 39.1565 53.5313 39.241 53.9481 39.3311C54.3875 39.4213 54.8212 39.5283 55.2492 39.6522C55.6886 39.7648 56.0828 39.9225 56.432 40.1253C56.7925 40.3168 57.0741 40.5759 57.2769 40.9026C57.4909 41.218 57.598 41.6292 57.598 42.1361C57.598 42.7331 57.4403 43.2513 57.1248 43.6907C56.8094 44.1187 56.3419 44.451 55.7224 44.6876C55.114 44.9129 54.3649 45.0256 53.475 45.0256Z" fill="#10171D"/>
<path d="M63.3535 45.0256C62.4523 45.0256 61.6525 44.851 60.9541 44.5017C60.2669 44.1525 59.7262 43.6287 59.3319 42.9303C58.9377 42.2319 58.7405 41.3588 58.7405 40.3112C58.7405 39.2635 58.9377 38.3961 59.3319 37.709C59.7262 37.0106 60.2725 36.4924 60.971 36.1544C61.6694 35.8052 62.4692 35.6306 63.3704 35.6306C64.2716 35.6306 65.0714 35.8052 65.7698 36.1544C66.4683 36.5036 67.0146 37.0275 67.4089 37.7259C67.8032 38.413 68.0003 39.2804 68.0003 40.3281C68.0003 41.3983 67.7975 42.2825 67.392 42.981C66.9864 43.6794 66.4288 44.1976 65.7191 44.5355C65.0207 44.8622 64.2322 45.0256 63.3535 45.0256ZM63.438 43.0486C63.8435 43.0486 64.1815 42.9584 64.4518 42.7782C64.7222 42.5867 64.925 42.2994 65.0601 41.9164C65.1953 41.5334 65.2629 41.0603 65.2629 40.4971C65.2629 39.9 65.1897 39.3987 65.0432 38.9932C64.8968 38.5764 64.6771 38.261 64.3842 38.0469C64.1026 37.8216 63.7365 37.709 63.2859 37.709C62.9029 37.709 62.5706 37.8047 62.289 37.9962C62.0186 38.1765 61.8158 38.4581 61.6807 38.8411C61.5455 39.2241 61.4779 39.7029 61.4779 40.2774C61.4779 41.2011 61.6469 41.8939 61.9848 42.3558C62.334 42.8176 62.8184 43.0486 63.438 43.0486Z" fill="#10171D"/>
<path d="M18.7853 33.5894L13 40.3091H18.2067L17.6282 44.7888L23.4135 38.0691H18.2067L18.7853 33.5894Z" fill="#10171D"/>
<rect x="29.8975" y="33" width="2.75074" height="2.16129" rx="1.08065" fill="#10171D"/>
<rect x="45.0264" y="33" width="2.75074" height="2.16129" rx="1.08065" fill="#10171D"/>
</svg>
