<svg width="55" height="15" viewBox="0 0 55 15" fill="none" xmlns="http://www.w3.org/2000/svg">
<path d="M5.69824 11.789L7.46657 9.59233H9.59054C10.1763 9.59233 10.6663 9.46842 11.0606 9.22059C11.4549 8.97276 11.7478 8.60102 11.9393 8.10536C12.142 7.60971 12.2434 6.99014 12.2434 6.24665C12.2434 5.64961 12.1815 5.13706 12.0576 4.70899C11.9336 4.28092 11.7478 3.93171 11.4999 3.66135C11.2634 3.37973 10.9536 3.17133 10.5706 3.03615C10.1988 2.90097 9.75951 2.83338 9.25259 2.83338H6.18945L6.46138 0.636719H9.1512C10.5368 0.636719 11.6689 0.856385 12.5476 1.29572C13.4262 1.73505 14.0683 2.36588 14.4739 3.18822C14.8794 3.9993 15.0822 4.97371 15.0822 6.11147C15.0822 6.99014 14.9752 7.75052 14.7611 8.39262C14.5584 9.03472 14.2767 9.57544 13.9163 10.0148C13.5558 10.4428 13.139 10.792 12.6659 11.0624C12.204 11.3215 11.714 11.5074 11.1958 11.62C10.6889 11.7327 10.1819 11.789 9.67502 11.789H8.01908H5.69824Z" fill="#D6FFC8"/>
<path d="M16.8915 11.789V2.86717H19.6484V11.789H16.8915Z" fill="#D6FFC8"/>
<path d="M25.3256 14.915C24.3343 14.915 23.5175 14.8362 22.8754 14.6784C22.2446 14.532 21.7828 14.3067 21.4899 14.0026C21.197 13.7097 21.0505 13.3492 21.0505 12.9211C21.0505 12.4029 21.2533 11.9805 21.6588 11.6538C22.0756 11.3271 22.6839 11.1413 23.4838 11.0962V10.7414C22.8642 10.7414 22.3854 10.6794 22.0475 10.5555C21.7208 10.4316 21.5575 10.2006 21.5575 9.86269C21.5575 9.54727 21.7208 9.26002 22.0475 9.00093C22.3742 8.74183 22.9149 8.53906 23.6696 8.39262V8.03777C22.9825 7.98145 22.4361 7.75615 22.0306 7.36188C21.625 6.95634 21.4223 6.42689 21.4223 5.77352C21.4223 5.22154 21.58 4.72025 21.8954 4.26966C22.2108 3.8078 22.6839 3.44169 23.3148 3.17133C23.9456 2.8897 24.7342 2.74889 25.6804 2.74889H30.3103V4.79348L27.4884 4.42173V4.82727C28.2207 4.92866 28.7445 5.09763 29.0599 5.33419C29.3753 5.57076 29.533 5.90307 29.533 6.33114C29.533 6.78173 29.3753 7.18164 29.0599 7.53085C28.7557 7.88007 28.322 8.15606 27.7588 8.35883C27.1955 8.55033 26.5253 8.64608 25.748 8.64608C25.6128 8.64608 25.4607 8.64045 25.2918 8.62918C25.1341 8.61792 24.8355 8.58976 24.3962 8.5447C24.216 8.70241 24.0752 8.83758 23.9738 8.95023C23.8724 9.05162 23.8217 9.14737 23.8217 9.23749C23.8217 9.30508 23.8499 9.3614 23.9062 9.40646C23.9625 9.45152 24.0414 9.48532 24.1428 9.50785C24.2554 9.51911 24.3737 9.52474 24.4976 9.52474H27.2181C27.4434 9.52474 27.7363 9.54164 28.0967 9.57544C28.4685 9.59797 28.8346 9.68245 29.1951 9.8289C29.5668 9.97534 29.8766 10.2119 30.1244 10.5386C30.3835 10.8653 30.5131 11.3328 30.5131 11.9411C30.5131 12.6057 30.3272 13.1577 29.9555 13.597C29.5837 14.0476 29.0148 14.3799 28.2488 14.594C27.4828 14.808 26.5084 14.915 25.3256 14.915ZM25.6804 12.7521C26.3338 12.7521 26.8407 12.7184 27.2012 12.6508C27.5617 12.5832 27.8095 12.4762 27.9447 12.3297C28.0911 12.1833 28.1643 12.003 28.1643 11.789C28.1643 11.5862 28.1249 11.4285 28.046 11.3159C27.9672 11.192 27.8658 11.1075 27.7419 11.0624C27.618 11.0173 27.4884 10.9892 27.3533 10.9779C27.2293 10.9667 27.1223 10.961 27.0322 10.961H24.8524C24.4356 10.961 24.1259 11.0624 23.9231 11.2652C23.7316 11.4567 23.6358 11.682 23.6358 11.9411C23.6358 12.1551 23.7034 12.3184 23.8386 12.4311C23.9738 12.555 24.1878 12.6395 24.4807 12.6846C24.7849 12.7296 25.1848 12.7521 25.6804 12.7521ZM25.5621 7.29429C26.0465 7.29429 26.407 7.16474 26.6436 6.90565C26.8914 6.64656 27.0153 6.31987 27.0153 5.9256C27.0153 5.49753 26.8914 5.14832 26.6436 4.87796C26.3957 4.59634 26.0409 4.45553 25.579 4.45553C25.1172 4.45553 24.7567 4.59634 24.4976 4.87796C24.2385 5.14832 24.109 5.49753 24.109 5.9256C24.109 6.18469 24.1653 6.42126 24.2779 6.63529C24.3906 6.83806 24.5539 7.0014 24.768 7.12532C24.982 7.23797 25.2467 7.29429 25.5621 7.29429Z" fill="#D6FFC8"/>
<path d="M32.0267 11.789V2.86717H34.7775V11.789H32.0267Z" fill="#D6FFC8"/>
<path d="M40.475 12.0256C39.878 12.0256 39.3372 11.9692 38.8529 11.8566C38.3685 11.7552 37.946 11.6031 37.5856 11.4004C37.2251 11.1976 36.9266 10.9554 36.69 10.6738C36.4647 10.3809 36.307 10.0598 36.2169 9.71062L38.2445 8.81505C38.3234 9.00656 38.4586 9.2037 38.6501 9.40646C38.8529 9.59797 39.1176 9.75568 39.4443 9.87959C39.7822 10.0035 40.1877 10.0655 40.6609 10.0655C41.1115 10.0655 41.4607 10.0035 41.7085 9.87959C41.9676 9.74441 42.0971 9.55291 42.0971 9.30508C42.0971 9.12484 42.0239 8.98403 41.8775 8.88264C41.7423 8.77 41.5339 8.67424 41.2523 8.59539C40.9707 8.50527 40.6214 8.42078 40.2046 8.34193C39.7766 8.25181 39.3429 8.15042 38.9035 8.03777C38.4642 7.91386 38.053 7.75052 37.67 7.54775C37.287 7.33372 36.9772 7.05773 36.7407 6.71978C36.5154 6.37057 36.4027 5.93123 36.4027 5.40178C36.4027 4.8498 36.5492 4.37104 36.8421 3.9655C37.135 3.5487 37.5687 3.22202 38.1432 2.98546C38.7289 2.74889 39.4386 2.63061 40.2722 2.63061C41.0157 2.63061 41.6691 2.72636 42.2323 2.91787C42.7956 3.10937 43.2631 3.38536 43.6348 3.74584C44.0178 4.09505 44.2825 4.51749 44.429 5.01314L42.2492 5.79042C42.1929 5.54259 42.0746 5.32856 41.8944 5.14832C41.7254 4.96808 41.5057 4.8329 41.2354 4.74278C40.9763 4.6414 40.6665 4.59071 40.306 4.59071C39.8667 4.59071 39.5231 4.6583 39.2753 4.79348C39.0387 4.92866 38.9204 5.10889 38.9204 5.33419C38.9204 5.51443 38.9993 5.66651 39.157 5.79042C39.326 5.90307 39.5625 5.99882 39.8667 6.07768C40.1708 6.15653 40.5313 6.24102 40.9481 6.33114C41.3875 6.42126 41.8212 6.52828 42.2492 6.65219C42.6886 6.76484 43.0828 6.92255 43.432 7.12532C43.7925 7.31682 44.0741 7.57591 44.2769 7.9026C44.4909 8.21801 44.598 8.62918 44.598 9.1361C44.598 9.73315 44.4403 10.2513 44.1248 10.6907C43.8094 11.1187 43.3419 11.451 42.7224 11.6876C42.114 11.9129 41.3649 12.0256 40.475 12.0256Z" fill="#D6FFC8"/>
<path d="M50.3535 12.0256C49.4523 12.0256 48.6525 11.851 47.9541 11.5017C47.2669 11.1525 46.7262 10.6287 46.3319 9.93028C45.9377 9.23186 45.7405 8.35883 45.7405 7.31119C45.7405 6.26355 45.9377 5.39615 46.3319 4.70899C46.7262 4.01056 47.2725 3.49238 47.971 3.15443C48.6694 2.80522 49.4692 2.63061 50.3704 2.63061C51.2716 2.63061 52.0714 2.80522 52.7698 3.15443C53.4683 3.50364 54.0146 4.02746 54.4089 4.72589C54.8032 5.41305 55.0003 6.28045 55.0003 7.32808C55.0003 8.39825 54.7975 9.28255 54.392 9.98097C53.9864 10.6794 53.4288 11.1976 52.7191 11.5355C52.0207 11.8622 51.2322 12.0256 50.3535 12.0256ZM50.438 10.0486C50.8435 10.0486 51.1815 9.95844 51.4518 9.77821C51.7222 9.5867 51.925 9.29945 52.0601 8.91644C52.1953 8.53343 52.2629 8.0603 52.2629 7.49706C52.2629 6.90002 52.1897 6.39873 52.0432 5.99319C51.8968 5.57639 51.6771 5.26097 51.3842 5.04694C51.1026 4.82164 50.7365 4.70899 50.2859 4.70899C49.9029 4.70899 49.5706 4.80474 49.289 4.99624C49.0186 5.17648 48.8158 5.45811 48.6807 5.84111C48.5455 6.22412 48.4779 6.70288 48.4779 7.27739C48.4779 8.20112 48.6469 8.89391 48.9848 9.35577C49.334 9.81763 49.8184 10.0486 50.438 10.0486Z" fill="#D6FFC8"/>
<path d="M5.78529 0.589355L0 7.30909H5.20674L4.62822 11.7888L10.4135 5.06915H5.20674L5.78529 0.589355Z" fill="#D6FFC8"/>
<rect x="16.8975" width="2.75074" height="2.16129" rx="1.08065" fill="#D6FFC8"/>
<rect x="32.0264" width="2.75074" height="2.16129" rx="1.08065" fill="#D6FFC8"/>
</svg>
